<?xml version="1.0" encoding="utf-8"?>
<!-- Generator: Adobe Illustrator 23.0.0, SVG Export Plug-In . SVG Version: 6.00 Build 0)  -->
<svg version="1.1" id="PHI" xmlns="http://www.w3.org/2000/svg" xmlns:xlink="http://www.w3.org/1999/xlink" x="0px" y="0px"
	 width="8503.94px" height="5669.29px" viewBox="0 0 8503.94 5669.29" style="enable-background:new 0 0 8503.94 5669.29;"
	 xml:space="preserve">
<style type="text/css">
	.st0{clip-path:url(#SVGID_2_);}
	.st1{fill:#FFFFFF;}
	.st2{fill:#CC151A;}
	.st3{fill:#25378D;}
	.st4{fill:#FDD300;}
</style>
<g>
	<defs>
		<rect id="SVGID_1_" width="8503.94" height="5669.29"/>
	</defs>
	<clipPath id="SVGID_2_">
		<use xlink:href="#SVGID_1_"  style="overflow:visible;"/>
	</clipPath>
	<g class="st0">
		<polygon class="st1" points="4940.43,2834.58 0.06,5672.79 0.06,-3.5 		"/>
		<polygon class="st2" points="4940.43,2834.58 4940.43,2834.58 0,5672.79 11352.5,5672.79 11352.5,2834.58 		"/>
		<path class="st3" d="M0-3.5l4940.43,2838.08h6412.2V-3.5H0z M0-3.5"/>
		<polygon class="st4" points="667.41,5126.58 447.76,4998.6 259.91,5169.83 313.95,4921.34 92.91,4795.76 345.91,4770.27 
			397.09,4521.14 499.46,4753.91 752.2,4725.75 562.44,4894.96 		"/>
		<path class="st4" d="M2729.75,2950.52l108.33-114.03l-131.98-114.55l-470.28,57.46c-1.34-14.33-3.05-28.16-5.33-42.11
			l421.58-75.48l-84.04-66.21l-347.43,93.61c-13-52.39-33.11-102.12-58.98-147.91l322.13-176.44l14.83-105.91l-362.27,241
			l-24.93-33.99l393.28-304.69l-1.14-157.28l-174.48,9.26l-298.6,367.72l-32.98-26.64l250.9-346.93l-106.49,10.66l-185.13,308.74
			c-50.73-31.71-106.48-56.19-165.97-71.66l96.4-354.16l-66.02-84.22L1743.39,2245c-13.77-2.42-27.72-4.57-41.73-5.96l53.4-494.46
			l-114.03-108.33l-114.29,132.18l57.53,470.09c-14.15,1.27-28.22,3.18-42.12,5.45l-75.73-421.64l-66.09,84.23l93.81,347.3
			c-57.59,14.46-111.74,37.04-161.22,66.73l-184.82-317.25l-106.42-12.18l250.72,356.07l-33.49,25.49L944,1987.75l-157.3,5.33
			l13.88,174.16l375.54,288.71l-25.56,33.99l-353.59-242.03l13.51,106.17l313.44,176.95c-28.47,48.2-50.42,100.85-64.57,156.4
			l-354.72-93.99l-83.91,66.47l428.75,74.96c-2.22,13.83-4.13,27.78-5.59,41.74l-494.9-50.1l-107.5,114.8l132.88,113.39
			l469.65-60.63c1.45,14.21,3.48,28.16,5.83,41.99l-421.07,78.39l84.55,65.83l346.67-96.15c13.9,54.04,35.2,105.03,62.72,152.09
			l-319.27,181.51l-13.07,106.3l358.47-247.09l25.3,33.86l-388.34,310.91l3.74,157.29l174.35-12.05l292.63-372.54l33.49,25.99
			l-245.51,350.99l106.42-12.3l180-311.54c49.66,30.07,104.07,52.91,161.86,67.49l-93.94,354.91l66.53,83.85l74.84-428.99
			c13.89,2.4,27.78,4.31,41.8,5.57l-49.98,495.09l114.8,107.56l113.4-133.06l-60.82-469.71c14.2-1.4,28.23-3.3,41.98-5.72l78.58,421
			l65.71-84.61l-96.22-346.54c56.89-14.59,110.55-37.55,159.52-67.1l186.08,316.35l106.42,11.68l-252.11-354.8l33.36-25.87
			l316.54,383.84l157.3-6.09l-14.85-174.03l-376.67-287.19l25.5-33.99l354.6,240.38l-13.89-106.17l-314.27-175.43
			c27.21-46.55,48.2-96.78,62.09-150.05l354.1,96.52l84.29-65.96l-428.23-78.01c2.47-13.7,4.56-27.65,5.96-41.73L2729.75,2950.52z"
			/>
		<polygon class="st4" points="3699.81,3039.82 3850.26,2834.84 3699.43,2630.24 3940.75,2709.77 4088.98,2503.14 4087.78,2757.33 
			4330.05,2834.33 4087.9,2911.83 4089.61,3166.15 3941.14,2959.78 		"/>
		<polygon class="st4" points="667.41,480.43 447.76,608.54 259.91,437.18 313.95,685.67 92.91,811.25 345.91,836.75 
			397.09,1085.87 499.46,853.1 752.2,881.26 562.44,712.05 		"/>
	</g>
</g>
</svg>
